# xmcd CD database file
#
# Track frame offsets:
#	150
#	14743
#	25501
#	45453
#	62770
#	84232
#	103717
#	122177
#	140473
#	157466
#	177996
#	199304
#	215694
#	234138
#	252379
#	271070
#	287548
#	302025
#	314558
#	334718
#
# Disc length: 4724 seconds
#
# Revision: 0
# Processed by: cddbd v1.5.2PL0 Copyright (c) Steve Scherf et al.
# Submitted via: CDex 1.51
#
DISCID=23127214
DTITLE=Spirit of Salsa - Spirit of Salsa - Baila
DYEAR=2015
DGENRE=Salsa
TTITLE0=CheoFeliciano - Oye Como Va
TTITLE1=Benny More - Francisco Guayabal
TTITLE2=Joe Arroyo y la Verdad - La Noche
TTITLE3=Adalberto Alvarez - Si No Fuera Por Las Mujeres
TTITLE4=Jesus Pagan y su Orquestra - Ritmo Sabroso
TTITLE5=Alfredo de la Fe - Barranquilla Es
TTITLE6=Los Van Van - Esto Te Pone La Cabeza Mala
TTITLE7=Fruko y sus Tesos - Cali De Rumba
TTITLE8=The Latin Brothers - Buscandote
TTITLE9=Manolito Simonet - Locos Por Mi Habana
TTITLE10=Sonora Carruseles - Micaela
TTITLE11=Pupy y los Que Son Son - Si Me Quieres Conocer
TTITLE12=Conjunto Massalia - Partage
TTITLE13=Mosquito Salsa Club - La Polkita
TTITLE14=Mambomania - Serial Dancer
TTITLE15=Batazo - Mas Sabrosa Que Un Helado
TTITLE16=Raul Planas - La Revoltosa
TTITLE17=Papa Noel - Tomatito
TTITLE18=Luisito Rosario - Casino Rueda
TTITLE19=Pete Rodriguez - I Like It Like That
EXTD=YEAR: 2015
EXTT0=
EXTT1=
EXTT2=
EXTT3=
EXTT4=
EXTT5=
EXTT6=
EXTT7=
EXTT8=
EXTT9=
EXTT10=
EXTT11=
EXTT12=
EXTT13=
EXTT14=
EXTT15=
EXTT16=
EXTT17=
EXTT18=
EXTT19=
PLAYORDER=
